<svg xmlns="http://www.w3.org/2000/svg" xmlns:xlink="http://www.w3.org/1999/xlink" width="64" height="64"><defs><linearGradient id="a"><stop offset="0"/><stop offset="1" stop-opacity="0"/></linearGradient><linearGradient id="b"><stop offset="0" stop-color="#fff"/><stop offset=".464" stop-color="#fff" stop-opacity=".235"/><stop offset=".762" stop-color="#fff" stop-opacity=".157"/><stop offset="1" stop-color="#fff" stop-opacity=".392"/></linearGradient><linearGradient id="c"><stop offset="0" stop-opacity=".322"/><stop offset="1" stop-opacity=".278"/></linearGradient><linearGradient id="e"><stop offset="0" stop-color="#f4f4f4"/><stop offset=".696" stop-color="#e9e9e9"/><stop offset="1" stop-color="#dbdbdb"/></linearGradient><linearGradient id="d"><stop offset="0" stop-color="#0a0a0a"/><stop offset="1" stop-color="#0a0a0a" stop-opacity="0"/></linearGradient><linearGradient id="f"><stop offset="0"/><stop offset="1" stop-opacity="0"/></linearGradient><linearGradient id="i"><stop offset="0" stop-color="#cdf87e"/><stop offset=".262" stop-color="#a2e34f"/><stop offset=".661" stop-color="#68b723"/><stop offset="1" stop-color="#1d7e0d"/></linearGradient><linearGradient id="g"><stop offset="0" stop-color="#fff"/><stop offset=".333" stop-color="#fff" stop-opacity=".235"/><stop offset=".951" stop-color="#fff" stop-opacity=".157"/><stop offset="1" stop-color="#fff" stop-opacity=".392"/></linearGradient><linearGradient id="h"><stop offset="0" stop-color="#90dbec"/><stop offset=".262" stop-color="#42baea"/><stop offset=".705" stop-color="#3689e6"/><stop offset="1" stop-color="#2b63a0"/></linearGradient><radialGradient xlink:href="#f" id="n" gradientUnits="userSpaceOnUse" gradientTransform="matrix(1 0 0 .33333 0 25.333)" cx="26" cy="38" fx="26" fy="38" r="18"/><radialGradient xlink:href="#h" id="o" gradientUnits="userSpaceOnUse" gradientTransform="matrix(0 4.5283 -6.33962 0 157.143 -133.589)" cx="34.801" cy="19.74" fx="34.801" fy="19.74" r="26.5"/><clipPath id="l"><path d="M23 27c-7.21 0-13 5.79-13 13v3c0 7.21 5.79 13 13 13h25c1.456 0 2.857-.222 4.156-.656l.282-.094.187.188a6.502 6.502 0 0 0 7.469.687c-1.17-.862-2.321-1.787-3.25-2.969l-.282-.375.344-.312A12.932 12.932 0 0 0 61 43v-3c0-7.21-5.79-13-13-13H23z" fill="#804d4d"/></clipPath><linearGradient xlink:href="#g" id="p" x1="36" y1="28" x2="36" y2="56" gradientUnits="userSpaceOnUse"/><radialGradient xlink:href="#i" id="k" gradientUnits="userSpaceOnUse" gradientTransform="matrix(0 5.13208 6.03774 0 -86.83 -176.755)" cx="36" cy="19.019" fx="36" fy="19.019" r="26.5"/><linearGradient xlink:href="#g" id="m" gradientUnits="userSpaceOnUse" x1="36" y1="28" x2="36" y2="56"/><radialGradient xlink:href="#f" id="j" gradientUnits="userSpaceOnUse" gradientTransform="matrix(1 0 0 .33333 0 25.333)" cx="26" cy="38" fx="26" fy="38" r="18"/></defs><path transform="matrix(1.44444 0 0 1.33333 -9.056 -16.167)" d="M44 38a18 6 0 1 1-36 0 18 6 0 1 1 36 0z" opacity=".2" fill="url(#j)"/><path d="M41 6.5A13.47 13.47 0 0 1 54.5 20v3A13.47 13.47 0 0 1 41 36.5H16c-1.508 0-2.96-.235-4.313-.688a6.995 6.995 0 0 1-8.062.75 7.275 7.275 0 0 1-.531-.343 16.15 16.15 0 0 0 3.656-3.375A13.46 13.46 0 0 1 2.5 23v-3A13.47 13.47 0 0 1 16 6.5h25z" fill="url(#k)" stroke="#067d00" stroke-opacity=".498"/><path clip-path="url(#l)" d="M23 27c-7.21 0-13 5.79-13 13v3c0 7.21 5.79 13 13 13h25c1.456 0 2.857-.222 4.156-.656l.282-.094.187.188a6.502 6.502 0 0 0 7.469.687c-1.17-.862-2.321-1.787-3.25-2.969l-.282-.375.344-.312A12.932 12.932 0 0 0 61 43v-3c0-7.21-5.79-13-13-13H23z" transform="matrix(-1 0 0 1 64 -20)" fill="none" stroke="url(#m)" stroke-width="2" stroke-opacity=".498"/><path d="M44 38a18 6 0 1 1-36 0 18 6 0 1 1 36 0z" transform="matrix(1.44444 0 0 1.33333 -1.056 2.833)" opacity=".2" fill="url(#n)"/><path d="M23 26.5A13.47 13.47 0 0 0 9.5 40v3A13.47 13.47 0 0 0 23 56.5h25c1.508 0 2.96-.235 4.313-.688a6.995 6.995 0 0 0 8.062.75c.182-.105.362-.225.531-.343a16.15 16.15 0 0 1-3.656-3.375A13.46 13.46 0 0 0 61.5 43v-3A13.47 13.47 0 0 0 48 26.5H23z" fill="url(#o)" stroke="#00537d" stroke-opacity=".498"/><path d="M23 27c-7.21 0-13 5.79-13 13v3c0 7.21 5.79 13 13 13h25c1.456 0 2.857-.222 4.156-.656l.282-.094.187.188a6.502 6.502 0 0 0 7.469.687c-1.17-.862-2.321-1.787-3.25-2.969l-.282-.375.344-.312A12.932 12.932 0 0 0 61 43v-3c0-7.21-5.79-13-13-13H23z" clip-path="url(#l)" fill="none" stroke="url(#p)" stroke-width="2" stroke-opacity=".498"/><path d="M18.063 48.5A2.005 2.005 0 0 0 20 51a2 2 0 0 0 1.938-2.5 2.001 2.001 0 0 1-3.875 0zm6 0A2.005 2.005 0 0 0 26 51a2 2 0 0 0 1.938-2.5 2.001 2.001 0 0 1-3.875 0zm6 0A2.005 2.005 0 0 0 32 51a2 2 0 0 0 1.938-2.5 2.001 2.001 0 0 1-3.876 0z" opacity=".5" fill="#fff"/><path d="M20 46a2 2 0 1 0 0 4 2 2 0 0 0 0-4zm6 0a2 2 0 1 0 0 4 2 2 0 0 0 0-4zm6 0a2 2 0 1 0 0 4 2 2 0 0 0 0-4z" opacity=".4" fill="#00537d"/></svg>